<svg width="73" height="114" viewBox="0 0 73 114" fill="none" xmlns="http://www.w3.org/2000/svg">
<path d="M60.0553 1.23624e-05H12.9452C11.2448 -0.00325865 9.6074 0.642698 8.36724 1.80596C7.12708 2.96923 6.37778 4.56205 6.27236 6.25912L0.0132567 106.352C-0.0442524 107.263 0.0857619 108.176 0.395257 109.034C0.704752 109.893 1.18714 110.679 1.8126 111.344C2.43805 112.009 3.19327 112.538 4.03153 112.9C4.86979 113.261 5.77326 113.447 6.68608 113.445H20.332C21.9115 113.444 23.4395 112.883 24.6443 111.862C25.849 110.84 26.6524 109.424 26.9114 107.866L36.5003 50.3265L46.0891 107.866C46.3496 109.423 47.1535 110.837 48.3581 111.857C49.5627 112.878 51.09 113.438 52.6685 113.438H66.3144C67.2267 113.44 68.1295 113.255 68.9673 112.894C69.8051 112.533 70.56 112.004 71.1854 111.34C71.8107 110.676 72.2933 109.89 72.6032 109.032C72.9131 108.174 73.0438 107.262 72.9873 106.352L66.7282 6.25912C66.6227 4.56205 65.8734 2.96923 64.6333 1.80596C63.3931 0.642698 61.7557 -0.00325865 60.0553 1.23624e-05ZM60.0553 6.67284L60.7893 18.4237C58.5197 17.4119 56.5928 15.7629 55.2424 13.6769C53.892 11.5909 53.1763 9.15775 53.1823 6.67284H60.0553ZM19.8182 6.67284C19.8233 9.15756 19.1073 11.5904 17.7571 13.6762C16.4068 15.762 14.4803 17.4112 12.2112 18.4237L12.9452 6.67284H19.8182ZM52.6685 106.765L39.79 29.4806C39.6585 28.7032 39.256 27.9975 38.6538 27.4886C38.0516 26.9797 37.2887 26.7005 36.5003 26.7005C35.7118 26.7005 34.9489 26.9797 34.3467 27.4886C33.7445 27.9975 33.342 28.7032 33.2106 29.4806L20.332 106.765H6.68608L11.7307 26.1241C15.871 24.7574 19.4989 22.1661 22.1345 18.6929C24.7701 15.2197 26.2892 11.0282 26.491 6.67284H33.1638V16.6821C33.1638 17.567 33.5154 18.4156 34.1411 19.0413C34.7668 19.667 35.6154 20.0185 36.5003 20.0185C37.3851 20.0185 38.2338 19.667 38.8595 19.0413C39.4852 18.4156 39.8367 17.567 39.8367 16.6821V6.67284H46.5095C46.7113 11.0282 48.2305 15.2197 50.8661 18.6929C53.5017 22.1661 57.1295 24.7574 61.2698 26.1241L66.3144 106.765H52.6685Z" fill="#393D46"/>
</svg>
