<svg width="94" height="114" viewBox="0 0 94 114" fill="none" xmlns="http://www.w3.org/2000/svg">
<path d="M83.863 16.2115V6.70176C83.863 4.92434 83.157 3.21972 81.9001 1.9629C80.6433 0.706077 78.9387 0 77.1613 0H16.8455C15.068 0 13.3634 0.706077 12.1066 1.9629C10.8498 3.21972 10.1437 4.92434 10.1437 6.70176V16.2115C4.8292 34.0114 -0.264136 42.0267 0.0106363 56.9649C0.298812 72.5532 5.89478 79.9318 16.2423 109.587C16.7273 110.861 17.5871 111.958 18.7081 112.733C19.8291 113.508 21.1588 113.926 22.5218 113.93H50.8636C52.4499 113.929 53.9846 113.366 55.1945 112.34C56.4045 111.314 57.2113 109.892 57.4715 108.327L60.4069 90.7485L63.5701 109.735C63.7655 110.908 64.3713 111.974 65.2797 112.743C66.188 113.511 67.3397 113.932 68.5294 113.93H72.651C73.6711 113.927 74.6662 113.614 75.5041 113.032C76.3421 112.451 76.9831 111.628 77.3422 110.673C87.8975 80.5149 93.7012 72.6739 93.9894 56.9716C94.2709 41.9932 89.1306 33.8506 83.863 16.2115ZM77.1613 6.70176V13.4035H16.8455V6.70176H77.1613ZM71.4849 107.228H69.9435L63.7108 69.8189C63.5788 69.0381 63.1745 68.3294 62.5698 67.8183C61.965 67.3072 61.1987 67.0268 60.4069 67.0268C59.615 67.0268 58.8488 67.3072 58.244 67.8183C57.6392 68.3294 57.2349 69.0381 57.1029 69.8189L50.8636 107.228H22.5151C11.913 77.0702 7.00057 70.7907 6.71239 56.9649C6.43762 43.6955 10.9278 36.7591 15.9139 20.1053H78.0928C83.0521 36.6586 87.5423 43.6619 87.2943 56.8443C87.0397 70.7772 82.0536 77.1506 71.4849 107.228Z" fill="#393D46"/>
</svg>
