<svg width="80" height="114" viewBox="0 0 80 114" fill="none" xmlns="http://www.w3.org/2000/svg">
<path d="M0.000118289 88.62C0.207608 96.0364 2.3074 103.277 6.10012 109.653C6.65431 110.759 7.5053 111.689 8.55787 112.339C9.61044 112.989 10.8231 113.333 12.0601 113.333H40.7268C42.215 113.334 43.6608 112.838 44.8339 111.922C46.007 111.006 46.84 109.724 47.2001 108.28L50.0001 97.08L52.8001 108.28C53.1603 109.724 53.9932 111.006 55.1663 111.922C56.3394 112.838 57.7852 113.334 59.2734 113.333H67.9401C69.1797 113.333 70.3947 112.988 71.4487 112.335C72.5027 111.683 73.3539 110.749 73.9068 109.64C77.7016 103.27 79.7995 96.0324 80.0001 88.62C80.0001 69.0067 66.6668 62.8733 66.6668 55.3533C66.6668 46.02 80.0001 44.4267 80.0001 31.3133C80.0001 17.12 66.6668 18.56 66.6668 9.74V6.66667C66.6668 4.89856 65.9644 3.20287 64.7142 1.95262C63.4639 0.70238 61.7682 0 60.0001 0H53.3335C51.5653 0 49.8696 0.70238 48.6194 1.95262C47.3692 3.20287 46.6668 4.89856 46.6668 6.66667V10.6667C46.668 11.966 46.3478 13.2455 45.7348 14.3912C45.1219 15.537 44.2351 16.5133 43.1534 17.2333C41.9696 18.0214 40.9073 18.9781 40.0001 20.0733C39.0929 18.9781 38.0306 18.0214 36.8468 17.2333C35.7652 16.5133 34.8784 15.537 34.2654 14.3912C33.6524 13.2455 33.3323 11.966 33.3334 10.6667V6.66667C33.3334 4.89856 32.6311 3.20287 31.3808 1.95262C30.1306 0.70238 28.4349 0 26.6668 0H20.0001C18.232 0 16.5363 0.70238 15.2861 1.95262C14.0358 3.20287 13.3334 4.89856 13.3334 6.66667V9.74C13.3379 11.203 12.9332 12.6381 12.1652 13.8833C11.3971 15.1285 10.2962 16.1341 8.98678 16.7867C6.27885 18.1289 4.0014 20.2034 2.41293 22.7747C0.82445 25.346 -0.0114414 28.311 0.000118289 31.3333C0.000118289 44.2933 13.3334 46.1733 13.3334 55.4867C13.3334 62.6067 0.000118289 69.16 0.000118289 88.62ZM6.66678 31.2867C6.66678 20.7933 20.0001 23.58 20.0001 9.71333V6.66667H26.6668V10.6667C26.6632 13.0645 27.2538 15.4258 28.3857 17.5396C29.5177 19.6535 31.1557 21.4539 33.1534 22.78C34.2332 23.4988 35.1188 24.473 35.7317 25.6162C36.3446 26.7594 36.6658 28.0362 36.6668 29.3333C36.6668 30.2174 37.018 31.0652 37.6431 31.6904C38.2682 32.3155 39.1161 32.6667 40.0001 32.6667C40.8842 32.6667 41.732 32.3155 42.3571 31.6904C42.9823 31.0652 43.3334 30.2174 43.3334 29.3333C43.3323 28.034 43.6524 26.7545 44.2654 25.6088C44.8784 24.4631 45.7652 23.4867 46.8468 22.7667C48.8426 21.4418 50.4795 19.6435 51.6113 17.5322C52.7432 15.4209 53.3348 13.0622 53.3335 10.6667V6.66667H60.0001V9.74C60.0001 23.74 73.3335 20.7267 73.3335 31.3133C73.3335 40.7267 60.0001 42.2333 60.0001 55.4667C60.0001 67.1667 73.3335 70.2733 73.3335 88.62C73.1055 94.9964 71.2513 101.209 67.9468 106.667H59.2801L53.2401 82.5267C52.9905 81.8714 52.5476 81.3074 51.9702 80.9094C51.3927 80.5115 50.708 80.2984 50.0068 80.2984C49.3055 80.2984 48.6208 80.5115 48.0434 80.9094C47.466 81.3074 47.0231 81.8714 46.7734 82.5267L40.7268 106.667H12.0601C8.75465 101.209 6.89819 94.9967 6.66678 88.62C6.66678 70.46 20.0001 67.2267 20.0001 55.3533C20.0001 42.1267 6.66678 40.8333 6.66678 31.3333V31.2867Z" fill="#393D46"/>
</svg>
