<svg width="114" height="81" viewBox="0 0 114 81" fill="none" xmlns="http://www.w3.org/2000/svg">
<path d="M107.294 6.91097H72.485C71.2851 6.91247 70.1079 7.23785 69.0775 7.85276C68.0471 8.46767 67.2019 9.34931 66.6309 10.4047C66.1752 8.42398 65.2754 6.57278 63.9993 4.9909C62.7232 3.40903 61.1043 2.13787 59.2649 1.27346C57.4255 0.409056 55.4136 -0.0259905 53.3814 0.00120047C51.3492 0.0283915 49.3497 0.517106 47.5341 1.43042C45.7184 2.34373 44.1341 3.65775 42.9008 5.2732C41.6675 6.88864 40.8175 8.76326 40.415 10.7554C40.0125 12.7476 40.068 14.8052 40.5774 16.7727C41.0868 18.7402 42.0367 20.5663 43.3553 22.1129C42.5506 22.2805 37.8901 23.3534 36.0729 23.7759C35.2283 24.0075 34.5078 24.5604 34.0656 25.3163C33.6233 26.0723 33.4944 26.9712 33.7064 27.821C33.9184 28.6707 34.4545 29.4038 35.2 29.8634C35.9455 30.323 36.8412 30.4727 37.6957 30.2804C43.5322 28.6051 49.5375 27.5862 55.6 27.2427C50.5898 31.451 44.2521 33.7504 37.7091 33.7339C29.0653 33.7392 20.6708 36.6312 13.858 41.951C7.04513 47.2708 2.20416 54.7136 0.103352 63.0983C-0.0777031 63.8292 0.0430009 66.7663 0.00276651 70.6154C0.00276651 71.9363 0.262939 73.2443 0.768431 74.4646C1.27392 75.685 2.01483 76.7939 2.94886 77.7279C3.88289 78.6619 4.99174 79.4028 6.2121 79.9083C7.43247 80.4138 8.74045 80.674 10.0614 80.674H67.6368C70.301 80.6654 72.8547 79.6078 74.7448 77.7302L77.1187 75.3563L79.4925 77.7302C81.3827 79.6078 83.9363 80.6654 86.6006 80.674H103.942C106.609 80.674 109.168 79.6142 111.054 77.7279C112.94 75.8415 114 73.2831 114 70.6154V13.6167C114 11.8382 113.294 10.1326 112.036 8.87503C110.779 7.61747 109.073 6.91097 107.294 6.91097ZM53.6486 20.3224C52.3223 20.3224 51.0258 19.9291 49.9231 19.1923C48.8203 18.4555 47.9609 17.4082 47.4533 16.1829C46.9458 14.9576 46.813 13.6093 47.0717 12.3085C47.3305 11.0077 47.9691 9.81285 48.9069 8.87503C49.8447 7.93722 51.0396 7.29856 52.3404 7.03982C53.6412 6.78108 54.9895 6.91387 56.2148 7.42141C57.4401 7.92895 58.4874 8.78844 59.2242 9.89119C59.9611 10.9939 60.3543 12.2904 60.3543 13.6167V20.3224H53.6486ZM37.7091 40.4396C41.0629 40.4343 44.3985 39.9465 47.6134 38.9912C48.7592 40.3348 49.9816 41.611 51.2748 42.8134C51.9044 43.443 52.7582 43.7967 53.6486 43.7967C54.539 43.7967 55.3929 43.443 56.0224 42.8134C56.652 42.1839 57.0057 41.33 57.0057 40.4396C57.0057 39.5492 56.652 38.6954 56.0224 38.0658L54.1717 36.215C55.0099 35.759 55.8481 35.2963 56.6461 34.7666L61.3401 39.4606C61.9697 40.0902 62.8235 40.4438 63.7139 40.4438C64.6043 40.4438 65.4582 40.0902 66.0877 39.4606C66.7173 38.831 67.071 37.9771 67.071 37.0867C67.071 36.1964 66.7173 35.3425 66.0877 34.7129L61.8832 30.5151C62.5538 29.8446 63.2244 29.174 63.8011 28.5034L68.0458 32.7548C68.3575 33.0666 68.7276 33.3139 69.1349 33.4826C69.5422 33.6513 69.9788 33.7381 70.4196 33.7381C70.8605 33.7381 71.297 33.6513 71.7043 33.4826C72.1116 33.3139 72.4817 33.0666 72.7935 32.7548C73.1052 32.4431 73.3525 32.073 73.5212 31.6657C73.6899 31.2584 73.7767 30.8219 73.7767 30.381C73.7767 29.9402 73.6899 29.5036 73.5212 29.0963C73.3525 28.689 73.1052 28.3189 72.7935 28.0072L67.6971 22.9175C69.8899 19.0483 70.2252 18.0358 72.4917 13.6167H107.294V60.5568H7.95576C10.3341 54.6123 14.4407 49.5177 19.7447 45.9315C25.0487 42.3452 31.3064 40.4322 37.7091 40.4396ZM103.942 73.9682H86.6006C84.4815 73.9682 83.7238 72.2315 81.8596 70.6154C80.5815 69.3978 78.8839 68.7186 77.1187 68.7186C75.3534 68.7186 73.6558 69.3978 72.3777 70.6154C70.5068 72.2382 69.7491 73.9682 67.6368 73.9682H10.0614C9.17213 73.9682 8.31931 73.615 7.69053 72.9862C7.06174 72.3574 6.7085 71.5046 6.7085 70.6154V67.2625H107.294V70.6154C107.294 71.5046 106.941 72.3574 106.312 72.9862C105.684 73.615 104.831 73.9682 103.942 73.9682Z" fill="#393D46"/>
</svg>
