<svg width="114" height="114" viewBox="0 0 114 114" fill="none" xmlns="http://www.w3.org/2000/svg">
<path d="M101.507 25.1135C100.964 23.7557 100.131 22.5328 99.0663 21.5298C98.002 20.5268 96.7317 19.768 95.3441 19.3062L79.4981 14.022L75.2667 5.55922C74.4353 3.8848 73.1517 2.47662 71.5612 1.49412C69.9707 0.511628 68.1369 -0.00593131 66.2675 5.1284e-05H47.7324C45.863 -0.00593131 44.0292 0.511628 42.4387 1.49412C40.8482 2.47662 39.5646 3.8848 38.7331 5.55922L34.5017 14.022L18.6558 19.3062C17.2681 19.768 15.9979 20.5268 14.9336 21.5298C13.8692 22.5328 13.0364 23.7557 12.4931 25.1135L1.20038 53.3519C0.403719 55.3321 -0.00383031 57.4473 2.71284e-05 59.5817V100.588C2.71284e-05 102.367 0.706538 104.072 1.96413 105.33C3.22173 106.587 4.92739 107.294 6.7059 107.294H13.4118C15.1903 107.294 16.8959 106.587 18.1535 105.33C19.4111 104.072 20.1176 102.367 20.1176 100.588V91.0255L23.4706 79.8401V87.3641C23.6683 91.1446 24.822 94.8132 26.8235 98.0264V107.294C26.8235 109.072 27.53 110.778 28.7876 112.036C30.0452 113.293 31.7509 114 33.5294 114H80.4705C82.249 114 83.9547 113.293 85.2123 112.036C86.4699 110.778 87.1764 109.072 87.1764 107.294V98.0264C89.1782 94.8133 90.3318 91.1447 90.5293 87.3641V79.8401L93.8822 91.0255V100.588C93.8822 102.367 94.5887 104.072 95.8463 105.33C97.1039 106.587 98.8096 107.294 100.588 107.294H107.294C109.072 107.294 110.778 106.587 112.036 105.33C113.293 104.072 114 102.367 114 100.588V59.5817C114.004 57.4494 113.597 55.3363 112.799 53.3586L101.507 25.1135ZM93.8085 26.0188C90.2321 31.3967 86.9568 36.9689 83.9978 42.7097C83.6424 44.0509 83.9441 42.4951 83.8234 80.4705C81.1557 80.4705 78.5972 79.4107 76.7108 77.5243C74.8244 75.6379 73.7646 73.0794 73.7646 70.4117C73.7646 69.5224 73.4114 68.6696 72.7826 68.0408C72.1538 67.412 71.3009 67.0587 70.4117 67.0587C69.5224 67.0587 68.6696 67.412 68.0408 68.0408C67.412 68.6696 67.0587 69.5224 67.0587 70.4117C67.0587 74.8579 68.825 79.1221 71.969 82.2661C75.113 85.4101 79.3772 87.1763 83.8234 87.1763V87.3641C83.6841 89.6751 82.972 91.915 81.7513 93.8822H60.3529V31.9736L77.6138 20.4664C96.7658 26.9778 92.474 25.2409 93.8085 26.0188ZM42.9176 12.245L47.0685 19.5074L41.2344 15.618L42.9176 12.245ZM71.1359 12.245L72.8191 15.5979L66.985 19.4873L71.1359 12.245ZM66.5357 6.77298L56.9999 23.4169L47.491 6.77298C48.8523 6.70592 65.1409 6.70592 66.5089 6.77298H66.5357ZM36.3861 20.4664L53.647 31.9736V93.8822H32.2486C31.0176 91.9198 30.3047 89.6771 30.1765 87.3641V87.1763C34.6227 87.1763 38.8869 85.4101 42.0309 82.2661C45.1749 79.1221 46.9411 74.8579 46.9411 70.4117C46.9411 69.5224 46.5879 68.6696 45.9591 68.0408C45.3303 67.412 44.4775 67.0587 43.5882 67.0587C42.6989 67.0587 41.8461 67.412 41.2173 68.0408C40.5885 68.6696 40.2353 69.5224 40.2353 70.4117C40.2353 73.0794 39.1755 75.6379 37.2891 77.5243C35.4027 79.4107 32.8442 80.4705 30.1765 80.4705C30.0557 42.5018 30.3575 44.0174 30.0021 42.7097C27.0452 36.9678 23.7698 31.3955 20.1914 26.0188C21.2174 25.4153 29.5461 22.8 36.3861 20.4664ZM6.7059 100.588V93.8822H13.4118V100.588H6.7059ZM23.0481 57.9253L14.2701 87.1763H6.7059V59.5817C6.70537 58.3023 6.94889 57.0346 7.42343 55.8465L16.5635 33.0063L23.4706 44.5136V55.0351C23.4711 56.0139 23.3288 56.9876 23.0481 57.9253ZM33.5294 107.294V100.588H80.4705V107.294H33.5294ZM90.5293 55.0351V44.5136L97.4364 33.0063L106.576 55.8532C107.052 57.0386 107.296 58.3044 107.294 59.5817V87.1763H99.7298L90.9518 57.9186C90.6705 56.9833 90.5282 56.0118 90.5293 55.0351ZM100.588 100.588V93.8822H107.294V100.588H100.588Z" fill="#393D46"/>
</svg>
