<svg width="111" height="100" viewBox="0 0 111 100" fill="none" xmlns="http://www.w3.org/2000/svg">
<path d="M31.9519 100H78.6186C80.3867 100 82.0824 99.2976 83.3326 98.0474C84.5829 96.7971 85.2852 95.1014 85.2852 93.3333V38.0467L90.5719 43.3334C91.841 44.5469 93.5293 45.2242 95.2852 45.2242C97.0412 45.2242 98.7295 44.5469 99.9986 43.3334L108.619 34.7134C109.868 33.4632 110.57 31.7678 110.57 30C110.57 28.2323 109.868 26.5369 108.619 25.2867L86.2586 2.9267C85.3325 1.99608 84.2312 1.25827 83.0182 0.755927C81.8053 0.253581 80.5048 -0.00333603 79.1919 3.27038e-05H31.3786C30.0657 -0.00333603 28.7652 0.253581 27.5523 0.755927C26.3393 1.25827 25.238 1.99608 24.3119 2.9267L1.95191 25.2867C0.702104 26.5369 0 28.2323 0 30C0 31.7678 0.702104 33.4632 1.95191 34.7134L10.5719 43.3334C11.841 44.5469 13.5293 45.2242 15.2852 45.2242C17.0412 45.2242 18.7295 44.5469 19.9986 43.3334L25.2852 38.0467V93.3333C25.2852 95.1014 25.9876 96.7971 27.2379 98.0474C28.4881 99.2976 30.1838 100 31.9519 100ZM64.6719 6.6667C63.9931 8.61518 62.7247 10.3041 61.0428 11.4993C59.3608 12.6944 57.3486 13.3365 55.2852 13.3365C53.2219 13.3365 51.2097 12.6944 49.5277 11.4993C47.8458 10.3041 46.5774 8.61518 45.8986 6.6667H64.6719ZM15.2852 38.62L6.66524 30L29.0252 7.64003C29.6499 7.0169 30.4962 6.66688 31.3786 6.6667H38.9586C39.7236 10.4343 41.7677 13.8216 44.7444 16.2546C47.7211 18.6876 51.4474 20.0167 55.2919 20.0167C59.1364 20.0167 62.8627 18.6876 65.8394 16.2546C68.8161 13.8216 70.8602 10.4343 71.6252 6.6667H79.2052C80.0876 6.66688 80.9339 7.0169 81.5586 7.64003L103.905 30L95.2852 38.62L84.3119 27.64C83.8457 27.1726 83.2512 26.8542 82.6039 26.7251C81.9565 26.596 81.2853 26.662 80.6755 26.9148C80.0657 27.1676 79.5446 27.5957 79.1784 28.145C78.8123 28.6943 78.6174 29.3399 78.6186 30V93.3333H31.9519V30C31.9531 29.3399 31.7582 28.6943 31.392 28.145C31.0259 27.5957 30.5048 27.1676 29.895 26.9148C29.2852 26.662 28.614 26.596 27.9666 26.7251C27.3192 26.8542 26.7248 27.1726 26.2586 27.64L15.2852 38.62Z" fill="#393D46"/>
</svg>
