<svg width="114" height="114" viewBox="0 0 114 114" fill="none" xmlns="http://www.w3.org/2000/svg">
<path d="M100.621 3.10329C100.544 2.21658 100.122 1.39559 99.4452 0.817078C98.7688 0.238566 97.8923 -0.051189 97.0044 0.0101976C96.5633 0.0432488 96.1332 0.16318 95.7387 0.363093C95.3442 0.563005 94.9931 0.838951 94.7056 1.17506C94.4182 1.51116 94.2 1.90079 94.0637 2.32153C93.9273 2.74227 93.8756 3.18581 93.9113 3.62663L97.8498 53.8609C88.9044 54.5329 80.3292 57.7107 73.1062 63.0304C65.8832 68.3501 60.3045 75.5965 57.0089 83.9397C53.7123 75.5945 48.1315 68.3468 40.9059 63.027C33.6803 57.7072 25.1022 54.5305 16.1545 53.8609L20.1065 3.62663C20.1759 2.7369 19.889 1.85603 19.3089 1.17781C18.7288 0.499601 17.9031 0.0795972 17.0134 0.0101976C16.1236 -0.0592021 15.2428 0.227687 14.5645 0.807755C13.8863 1.38782 13.4663 2.21355 13.3969 3.10329L9.27057 55.753C3.26019 62.2198 -0.0553786 70.7369 0.000699927 79.5653C0.0567784 88.3938 3.48028 96.868 9.57232 103.258C15.6644 109.648 23.9656 113.472 32.7813 113.949C41.597 114.427 50.2626 111.521 57.0089 105.826C63.7552 111.517 72.4192 114.419 81.2324 113.94C90.0456 113.46 98.3435 109.635 104.433 103.246C110.522 96.8564 113.943 88.3839 113.997 79.5578C114.052 70.7318 110.736 62.2175 104.727 55.753L100.621 3.10329ZM14.9133 99.1368C9.80734 94.0385 6.85995 87.1704 6.68256 79.9571C6.50516 72.7438 9.11137 65.739 13.9605 60.396C24.382 60.7332 34.2845 65.0243 41.6568 72.3979C49.0292 79.7715 53.3186 89.6747 53.6541 100.096C48.3102 104.945 41.3049 107.55 34.0916 107.371C26.8784 107.192 20.0107 104.244 14.9133 99.1368ZM99.0978 99.1368C93.9967 104.227 87.1354 107.165 79.931 107.342C72.7265 107.519 65.7291 104.923 60.3838 100.09C60.7206 89.6725 65.008 79.7738 72.3759 72.4022C79.7439 65.0305 89.6404 60.7381 100.057 60.396C104.907 65.7392 107.513 72.7447 107.334 79.9585C107.156 87.1723 104.206 94.0402 99.0978 99.1368Z" fill="#393D46"/>
</svg>
