<svg width="114" height="94" viewBox="0 0 114 94" fill="none" xmlns="http://www.w3.org/2000/svg">
<path d="M57.0002 0C25.0331 0 0 14.753 0 33.5295V60.3531C0 75.6627 17.3884 88.8934 42.3746 92.7359C43.7829 93.4787 45.3492 93.872 46.9413 93.8826H67.059C68.6512 93.872 70.2174 93.4787 71.6257 92.7359C96.6119 88.8934 114 75.6627 114 60.3531V33.5295C114 14.753 88.9672 0 57.0002 0ZM6.7059 60.3531V49.5432C15.3576 57.9526 26.4222 63.4462 38.3511 65.2551C37.3993 66.8075 36.8913 68.5911 36.8825 70.412V83.8238C36.8825 84.1725 36.9495 84.4944 36.9831 84.8431C19.085 80.5781 6.7059 70.868 6.7059 60.3531ZM70.412 83.8238C70.3772 84.7019 70.0128 85.5347 69.3914 86.1562C68.77 86.7776 67.9372 87.142 67.059 87.1767H60.3531V80.4708H63.7061C64.5953 80.4708 65.4482 80.1176 66.077 79.4888C66.7058 78.86 67.059 78.0071 67.059 77.1179C67.059 76.2286 66.7058 75.3758 66.077 74.747C65.4482 74.1182 64.5953 73.7649 63.7061 73.7649H60.3531V67.059H67.059C67.9483 67.059 68.8011 67.4123 69.4299 68.0411C70.0587 68.6699 70.412 69.5227 70.412 70.412V83.8238ZM43.5884 83.8238V70.412C43.5884 69.5227 43.9416 68.6699 44.5704 68.0411C45.1992 67.4123 46.0521 67.059 46.9413 67.059H53.6472V73.7649C52.758 73.7649 51.9051 74.1182 51.2763 74.747C50.6475 75.3758 50.2943 76.2286 50.2943 77.1179C50.2943 78.0071 50.6475 78.86 51.2763 79.4888C51.9051 80.1176 52.758 80.4708 53.6472 80.4708V87.1767H46.9413C46.0621 87.1451 45.2276 86.7817 44.6055 86.1596C43.9834 85.5375 43.62 84.703 43.5884 83.8238ZM76.34 54.4184C77.0106 46.2976 68.4941 41.362 60.3531 40.4232V33.7173C76.1187 35.092 86.761 45.7611 76.34 54.4184ZM43.5884 53.6472C43.5884 50.482 49.3219 46.9413 57.0002 46.9413C64.2962 46.9413 69.7414 50.482 69.7414 53.6472C69.7414 56.8124 64.2962 60.3531 57.0002 60.3531C51.5416 60.3531 43.5884 57.8116 43.5884 53.6472ZM53.6472 40.4567C44.031 41.4961 36.8825 46.8877 36.8825 53.6338C27.4942 44.5808 39.2094 34.978 53.6472 33.7307V40.4567ZM85.8892 52.5273C86.6916 50.7715 87.1296 48.8712 87.1767 46.9413C87.1767 35.6553 73.9192 26.8236 57.0002 26.8236C40.0812 26.8236 26.8236 35.6553 26.8236 46.9413C26.868 48.878 27.3061 50.7854 28.1111 52.5475C25.8797 51.2979 23.986 49.524 22.5933 47.379C21.2007 45.234 20.351 42.7822 20.1177 40.2354C20.1177 29.3316 37.0099 20.1177 57.0002 20.1177C76.9905 20.1177 93.8826 29.3316 93.8826 40.2354C93.6493 42.7822 92.7997 45.234 91.407 47.379C90.0144 49.524 88.1206 51.2979 85.8892 52.5475V52.5273ZM107.294 60.3531C107.294 70.868 94.9153 80.5781 77.0173 84.8431C77.0508 84.5011 77.1179 84.1725 77.1179 83.8238V70.412C77.109 68.5911 76.6011 66.8075 75.6493 65.2551C87.5781 63.4462 98.6428 57.9526 107.294 49.5432V60.3531ZM98.6237 48.3563C99.9052 45.8404 100.578 43.0588 100.589 40.2354C100.589 25.1941 81.4432 13.4118 57.0002 13.4118C32.5572 13.4118 13.4118 25.1941 13.4118 40.2354C13.4229 43.0587 14.0959 45.8401 15.3766 48.3563C12.8947 46.7115 10.8227 44.5199 9.31965 41.9497C7.81659 39.3795 6.92246 36.4991 6.7059 33.5295C6.7059 18.9911 29.7407 6.7059 57.0002 6.7059C84.2597 6.7059 107.294 18.9911 107.294 33.5295C107.078 36.4991 106.184 39.3795 104.681 41.9497C103.178 44.5199 101.106 46.7115 98.6237 48.3563Z" fill="#393D46"/>
</svg>
